# File created by Blade
# Date/Time:  Tue Apr 07 20:35:32 2015
# Frame Rate: 120.000 fps
#------------------------------------------------------
:FULLY-SPECIFIED
:DEGREES
2083
root 2.432862 33.833697 -4.903562 46.346385 -11.292666 -13.224629
Spine -32.429412 26.565122 -7.701192
Head -6.646549 -9.091742 4.351352
LeftShoulder -28.355170 38.649770 18.551462
LeftArm 57.380073 -65.050998 -68.333141
LeftForeArm 12.400302 -0.000000 11.532114
LeftHand 9.321388 -0.000000 14.164819
LeftHandThumb1 -26.253704 0.000000 33.147579
RightShoulder -2.170183 6.440268 -28.701704
RightArm 10.366789 16.369768 60.122225
RightForeArm 9.046195 -0.000000 16.056871
RightHand 9.037590 -0.000000 -15.039221
RightHandThumb1 -24.326973 -0.000000 -32.862282
LeftUpLeg -44.977082 0.444374 11.434558
LeftLeg 5.653599 -0.000000 -0.000000
LeftFoot -2.071616 3.115027 -24.076786
LeftToeBase -5.077063 -0.000000 0.000000
RightUpLeg 10.011075 -19.011020 -13.490560
RightLeg 66.429402 -0.000000 -0.000000
RightFoot 42.930634 -9.546655 -0.571748
RightToeBase 34.671369 -0.000000 -0.000000
2084
root 2.417095 33.792038 -4.868579 45.916745 -11.353409 -13.467119
Spine -32.255847 26.362697 -7.265403
Head -5.801030 -8.780867 4.331712
LeftShoulder -28.244394 38.554826 18.678894
LeftArm 56.860865 -64.876615 -67.490955
LeftForeArm 12.183593 -0.000000 11.136567
LeftHand 9.411305 -0.000000 13.877994
LeftHandThumb1 -26.253704 0.000000 33.147579
RightShoulder -2.297020 6.530030 -28.719406
RightArm 10.374782 16.245556 59.843159
RightForeArm 8.667788 -0.000000 15.867204
RightHand 8.980480 -0.000000 -14.758225
RightHandThumb1 -24.326973 -0.000000 -32.862282
LeftUpLeg -44.285912 0.711680 11.186258
LeftLeg 5.502512 -0.000000 -0.000000
LeftFoot -2.858050 3.350819 -23.445829
LeftToeBase -4.956646 -0.000000 0.000000
RightUpLeg 9.723054 -18.591588 -13.062391
RightLeg 66.326054 -0.000000 -0.000000
RightFoot 42.841161 -9.622146 -0.493998
RightToeBase 34.887499 -0.000000 -0.000000
2085
root 2.398605 33.743891 -4.832690 45.480857 -11.402919 -13.720659
Spine -32.065087 26.121466 -6.805443
Head -5.012715 -8.447193 4.367804
LeftShoulder -28.277125 38.718974 18.620234
LeftArm 57.171582 -64.887575 -67.497304
LeftForeArm 11.972844 -0.000000 10.909547
LeftHand 9.514538 -0.000000 13.410618
LeftHandThumb1 -26.253704 0.000000 33.147579
RightShoulder -2.411630 6.643180 -28.676122
RightArm 10.325635 15.979077 59.430024
RightForeArm 8.473272 -0.000000 15.791924
RightHand 8.906497 -0.000000 -14.657233
RightHandThumb1 -24.326973 -0.000000 -32.862282
LeftUpLeg -43.587738 0.938022 11.022534
LeftLeg 5.395290 -0.000000 -0.000000
LeftFoot -3.829527 3.610016 -22.313577
LeftToeBase -4.586973 -0.000000 0.000000
RightUpLeg 9.431677 -18.176194 -12.604280
RightLeg 66.242650 -0.000000 -0.000000
RightFoot 42.863459 -9.563308 -0.640079
RightToeBase 34.411564 -0.000000 -0.000000
2086
root 2.379987 33.690811 -4.801328 45.063495 -11.442133 -13.956091
Spine -31.890551 25.857773 -6.358294
Head -4.255504 -8.101577 4.392236
LeftShoulder -28.293284 38.872413 18.563260
LeftArm 57.382617 -64.913599 -67.431357
LeftForeArm 11.788786 -0.000000 10.766729
LeftHand 9.376639 -0.000000 13.370422
LeftHandThumb1 -26.253704 0.000000 33.147579
RightShoulder -2.520733 6.793840 -28.660327
RightArm 10.241157 15.776431 59.036329
RightForeArm 8.164369 0.000000 15.721432
RightHand 8.803213 -0.000000 -14.619218
RightHandThumb1 -24.326973 -0.000000 -32.862282
LeftUpLeg -42.941989 1.121262 10.937218
LeftLeg 5.343194 -0.000000 -0.000000
LeftFoot -4.769884 3.656288 -21.427185
LeftToeBase -4.167988 -0.000000 0.000000
RightUpLeg 9.096372 -17.811560 -12.151350
RightLeg 66.213345 -0.000000 -0.000000
RightFoot 42.806860 -9.572338 -0.686339
RightToeBase 34.468362 -0.000000 -0.000000
2087
root 2.362186 33.635025 -4.774918 44.651502 -11.478664 -14.161247
Spine -31.681932 25.526393 -5.918325
Head -3.574264 -7.768020 4.431441
LeftShoulder -28.338120 38.947632 18.502722
LeftArm 57.534642 -64.962507 -67.339868
LeftForeArm 11.670353 -0.000000 10.674230
LeftHand 9.327854 0.000000 13.338846
LeftHandThumb1 -26.253704 0.000000 33.147579
RightShoulder -2.626508 6.954822 -28.616293
RightArm 10.198515 15.693732 58.627136
RightForeArm 7.828154 0.000000 15.667523
RightHand 8.786264 0.000000 -14.509833
RightHandThumb1 -24.326973 -0.000000 -32.862282
LeftUpLeg -42.334519 1.226850 10.924133
LeftLeg 5.337694 -0.000000 -0.000000
LeftFoot -5.609539 3.604019 -20.918774
LeftToeBase -4.392499 -0.000000 0.000000
RightUpLeg 8.723894 -17.483763 -11.703011
RightLeg 66.217789 -0.000000 -0.000000
RightFoot 42.745304 -9.622582 -0.732880
RightToeBase 34.577105 -0.000000 -0.000000
2088
root 2.346599 33.579450 -4.751424 44.286124 -11.504708 -14.289889
Spine -31.562159 25.170042 -5.600682
Head -2.952519 -7.447509 4.521779
LeftShoulder -28.111695 38.490703 18.868653
LeftArm 56.712342 -64.780978 -66.440745
LeftForeArm 11.601805 0.000000 10.683391
LeftHand 9.198275 -0.000000 13.164909
LeftHandThumb1 -26.253704 0.000000 33.147579
RightShoulder -2.737534 7.105068 -28.544113
RightArm 10.057287 15.593594 58.150721
RightForeArm 7.424077 -0.000000 15.701416
RightHand 8.790595 -0.000000 -14.583548
RightHandThumb1 -24.326973 -0.000000 -32.862282
LeftUpLeg -41.819439 1.250057 10.913640
LeftLeg 5.375685 -0.000000 -0.000000
LeftFoot -6.653070 3.605719 -20.372990
LeftToeBase -3.729880 -0.000000 0.000000
RightUpLeg 8.264558 -17.266655 -11.297186
RightLeg 66.257312 -0.000000 -0.000000
RightFoot 42.764508 -9.645543 -0.817358
RightToeBase 34.648523 -0.000000 -0.000000
2089
root 2.334108 33.525862 -4.730666 43.891717 -11.485062 -14.275811
Spine -31.375911 24.655102 -5.345188
Head -2.488028 -7.126073 4.668677
LeftShoulder -28.081819 38.364593 18.938492
LeftArm 56.655506 -64.755143 -66.243254
LeftForeArm 11.491936 -0.000000 10.785817
LeftHand 9.107223 -0.000000 13.142355
LeftHandThumb1 -26.253704 0.000000 33.147579
RightShoulder -2.844758 7.254761 -28.424486
RightArm 9.939718 15.618233 57.662553
RightForeArm 7.023983 0.000000 15.759409
RightHand 8.885624 -0.000000 -14.668103
RightHandThumb1 -24.326973 -0.000000 -32.862282
LeftUpLeg -41.372233 1.138737 10.856377
LeftLeg 5.460056 -0.000000 -0.000000
LeftFoot -7.616892 3.594322 -20.149813
LeftToeBase -3.235581 -0.000000 0.000000
RightUpLeg 7.820909 -17.158803 -10.956538
RightLeg 66.316265 -0.000000 -0.000000
RightFoot 42.709612 -9.598964 -0.805212
RightToeBase 34.582526 -0.000000 -0.000000
2090
root 2.324965 33.482563 -4.719632 43.558650 -11.444506 -14.190908
Spine -31.226236 24.118551 -5.184699
Head -2.137241 -6.905409 4.788532
LeftShoulder -27.942254 38.110545 19.054539
LeftArm 56.260048 -64.704026 -65.763602
LeftForeArm 11.447509 -0.000000 10.968681
LeftHand 9.156262 -0.000000 13.142409
LeftHandThumb1 -26.253704 0.000000 33.147579
RightShoulder -3.039940 7.344868 -28.266425
RightArm 9.868278 15.589710 57.125497
RightForeArm 6.761420 -0.000000 15.926582
RightHand 9.121093 -0.000000 -14.960414
RightHandThumb1 -24.326973 -0.000000 -32.862282
LeftUpLeg -41.066297 0.962037 10.806750
LeftLeg 5.598633 -0.000000 -0.000000
LeftFoot -8.444319 3.602523 -20.123674
LeftToeBase -3.013538 -0.000000 0.000000
RightUpLeg 7.218736 -17.118107 -10.588179
RightLeg 66.459757 -0.000000 -0.000000
RightFoot 42.644080 -9.441783 -0.839196
RightToeBase 34.665282 -0.000000 -0.000000
2091
root 2.314828 33.447663 -4.710879 43.235496 -11.361060 -14.028590
Spine -31.081548 23.527483 -5.097639
Head -1.874650 -6.686414 4.921559
LeftShoulder -27.827772 37.983136 19.114422
LeftArm 56.343549 -64.689267 -65.801682
LeftForeArm 11.651227 -0.000000 11.241538
LeftHand 9.044075 -0.000000 13.259938
LeftHandThumb1 -26.253704 0.000000 33.147579
RightShoulder -3.182036 7.455314 -28.108909
RightArm 9.619646 15.637594 56.589411
RightForeArm 6.561718 -0.000000 16.230551
RightHand 8.983440 -0.000000 -15.090315
RightHandThumb1 -24.326973 -0.000000 -32.862282
LeftUpLeg -40.811481 0.742781 10.747382
LeftLeg 5.729449 -0.000000 -0.000000
LeftFoot -9.214477 3.493427 -20.574016
LeftToeBase -2.911846 -0.000000 0.000000
RightUpLeg 6.563261 -17.139050 -10.198401
RightLeg 66.583798 -0.000000 -0.000000
RightFoot 42.589428 -9.377820 -0.847475
RightToeBase 34.794229 -0.000000 -0.000000
2092
root 2.306608 33.421314 -4.705720 42.881938 -11.256718 -13.746147
Spine -30.899514 22.885146 -5.107430
Head -1.660512 -6.564987 5.047693
LeftShoulder -27.758408 37.913222 19.103570
LeftArm 56.529847 -64.549603 -65.857668
LeftForeArm 11.814470 -0.000000 11.491845
LeftHand 8.901434 -0.000000 13.611586
LeftHandThumb1 -26.253704 0.000000 33.147579
RightShoulder -3.371116 7.411696 -27.921205
RightArm 9.464317 15.744393 56.057657
RightForeArm 6.476603 -0.000000 16.593155
RightHand 9.067896 -0.000000 -15.104308
RightHandThumb1 -24.326973 -0.000000 -32.862282
LeftUpLeg -40.574693 0.518322 10.558082
LeftLeg 5.847657 -0.000000 -0.000000
LeftFoot -10.062135 3.504456 -21.103244
LeftToeBase -2.161312 -0.000000 0.000000
RightUpLeg 5.888417 -17.214977 -9.851986
RightLeg 66.701599 -0.000000 -0.000000
RightFoot 42.521912 -9.375927 -0.798320
RightToeBase 34.833357 -0.000000 -0.000000
2093
root 2.300784 33.400165 -4.698891 42.473637 -11.142331 -13.380181
Spine -30.636489 22.229712 -5.177573
Head -1.579124 -6.510343 5.187435
LeftShoulder -27.616469 37.799406 19.184426
LeftArm 56.410022 -64.258178 -65.674933
LeftForeArm 12.018651 -0.000000 11.717531
LeftHand 8.969461 -0.000000 13.989364
LeftHandThumb1 -26.253704 0.000000 33.147579
RightShoulder -3.573640 7.263445 -27.752388
RightArm 9.293041 15.968560 55.574083
RightForeArm 6.315954 -0.000000 17.065956
RightHand 9.133916 -0.000000 -15.052569
RightHandThumb1 -24.326973 -0.000000 -32.862282
LeftUpLeg -40.261963 0.261770 10.291553
LeftLeg 5.837802 -0.000000 -0.000000
LeftFoot -10.713516 3.709553 -21.687106
LeftToeBase -2.179807 -0.000000 0.000000
RightUpLeg 5.228615 -17.353522 -9.562292
RightLeg 66.821171 -0.000000 -0.000000
RightFoot 42.392937 -9.222581 -0.849364
RightToeBase 34.827864 -0.000000 -0.000000
2094
root 2.292174 33.387025 -4.688931 42.033300 -10.990976 -12.985832
Spine -30.327073 21.586675 -5.270188
Head -1.525937 -6.492212 5.272865
LeftShoulder -27.397271 37.595589 19.315390
LeftArm 55.973199 -63.832394 -65.113860
LeftForeArm 12.116016 -0.000000 11.768838
LeftHand 9.371502 -0.000000 14.204910
LeftHandThumb1 -26.253704 0.000000 33.147579
RightShoulder -3.797788 7.034183 -27.619071
RightArm 9.064708 16.252224 55.154057
RightForeArm 6.123459 0.000000 17.629742
RightHand 9.087330 0.000000 -14.884295
RightHandThumb1 -24.326973 -0.000000 -32.862282
LeftUpLeg -39.868658 -0.000894 9.991216
LeftLeg 5.706398 -0.000000 -0.000000
LeftFoot -11.120922 4.187218 -22.354732
LeftToeBase -3.287541 -0.000000 0.000000
RightUpLeg 4.589197 -17.486260 -9.230474
RightLeg 66.831720 -0.000000 -0.000000
RightFoot 42.335092 -9.179596 -0.874719
RightToeBase 34.865425 -0.000000 -0.000000
